<svg xmlns="http://www.w3.org/2000/svg" viewBox="0.3298 -0.28 257.9093 451.304" width="257.909px" height="451.304px" role="img" aria-labelledby="title desc">

  <title id="title">Les Saveurs Du Jardin – Logo</title>
  <desc id="desc">
    Created by Armend SALIHU for Les Saveurs Du Jardin.
  </desc>

  <metadata>
    Creator: Armend SALIHU
    Project: Les Saveurs Du Jardin
    Type: SVG Vector Logo
  </metadata>

  <path d="M 253.99 184.095 C 250.601 167.837 219.21 107.541 146.694 111.332 C 189.019 89.584 212.752 28.939 210.825 22.535 C 167.114 43.494 151.715 64.894 142.994 74.95 C 129.385 28.335 95.39 -0.144 92.43 -0.28 C 75.337 43.703 83.425 86.695 87.497 90.674 C 57.809 76.521 -7.817 71.717 1.167 76.183 C 35.955 123.069 125.734 126.752 100.138 120.89 C 23.519 164.64 41.188 234.803 44.023 241.751 L 80.405 232.193 C 70.378 142.589 178.675 114.248 220.074 192.728" style="fill: rgb(169, 223, 81);"></path>

  <path d="M 86.481 249.109 C 120.344 320.81 227.232 298.991 224.653 210.491 L 257.319 201.237 C 257.827 201.237 258.578 220.452 258.07 220.452 L 232.726 229.209 L 258.07 224.328 C 259.219 226.242 250.497 291.493 249.622 290.035 L 167.019 316.881 L 247.562 298.792 C 247.821 299.051 240.848 333.076 240.798 333.026 L 199.685 347.669 L 239.859 338.47 C 240.197 337.624 227.564 399.023 227.226 399.869 C 227.226 400.238 204.19 407.13 204.19 406.993 C 204.19 406.902 226.486 402.241 226.486 402.487 C 226.716 403.177 217.991 443.138 217.895 442.85 C 214.077 454.106 202.204 451.526 198.379 448.078 C 191.738 442.092 150.215 394.843 150.925 394.239 C 151.228 394.315 184.267 383.056 183.542 382.875 C 184.453 382.875 148.418 390.397 148.046 390.397 C 147.097 391.346 110.738 347.618 111.05 347.306 C 126.624 342.575 146.445 334.654 146.356 334.766 C 146.522 334.7 107.586 343.533 107.32 342.6 L 81.6 309.747 C 90.97 308.277 115.331 299.299 109.76 300.173 C 109.542 300.828 78.605 307.47 78.972 306.368 C 77.929 308.714 49.361 261.197 50.061 259.622 L 86.481 249.109 Z" style="fill: rgb(255, 130, 17);"></path>

  <ellipse cx="151.092" cy="220.126" rx="37" ry="37" style="fill: rgb(169, 223, 81);"></ellipse>

</svg>
